<svg xmlns="http://www.w3.org/2000/svg" width="1140" height="728" viewBox="0 0 1140 728"><defs><style type="text/css"/></defs><path transform="translate(391.55633087569674 361.44097084454376) scale(1) translate(-129 -110) rotate(-15.027675742636088)" d="M 59 0 L 206.48146612230593 0" fill="none" stroke="#000000" stroke-width="5"/><polygon transform="translate(391.55633087569674 361.44097084454376) scale(1) translate(-129 -110) rotate(-15.027675742636088) translate(231.34361674005424 0) rotate(0)" points="-24.8621506177483,0 -27.62461179749811,9.20820393249937 0,0 -27.62461179749811,-9.20820393249937" fill="undefined" stroke="none" stroke-width="5"/><rect transform="translate(391.55633087569674 361.44097084454376) scale(1) translate(-0.7989076867173139 -144.41775912655334) rotate(-15.027675742636088) translate(0 -13) translate(0 0) translate(-57.484375 0)" x="0" y="0" width="114.96875" height="26" rx="5" ry="5" fill="#ffffff" stroke="none"/><text xml:space="preserve" transform="translate(391.55633087569674 361.44097084454376) scale(1) translate(-0.7989076867173139 -144.41775912655334) rotate(-15.027675742636088) translate(0 -13) translate(0 0) translate(-57.484375 0)" x="5" y="18" font-family="sans-serif" font-size="16" font-weight="normal" text-anchor="left" fill="#000000">has_ingredient</text><path transform="translate(391.55633087569674 361.44097084454376) scale(1) translate(-228.3724136292501 121.59625400207301) rotate(-66.77698609901049)" d="M 59 0 L 168.15312959020952 0" fill="none" stroke="#000000" stroke-width="5"/><polygon transform="translate(391.55633087569674 361.44097084454376) scale(1) translate(-228.3724136292501 121.59625400207301) rotate(-66.77698609901049) translate(193.0152802079578 0) rotate(0)" points="-24.8621506177483,0 -27.62461179749811,9.20820393249937 0,0 -27.62461179749811,-9.20820393249937" fill="undefined" stroke="none" stroke-width="5"/><rect transform="translate(391.55633087569674 361.44097084454376) scale(1) translate(-183.58791736340785 17.221999681999463) rotate(-66.77698609901049) translate(0 -13) translate(0 0) translate(-53.46875 0)" x="0" y="0" width="106.9375" height="26" rx="5" ry="5" fill="#ffffff" stroke="none"/><text xml:space="preserve" transform="translate(391.55633087569674 361.44097084454376) scale(1) translate(-183.58791736340785 17.221999681999463) rotate(-66.77698609901049) translate(0 -13) translate(0 0) translate(-53.46875 0)" x="5" y="18" font-family="sans-serif" font-size="16" font-weight="normal" text-anchor="left" fill="#000000">manufactures</text><path transform="translate(391.55633087569674 361.44097084454376) scale(1) translate(-228.3724136292501 121.59625400207301) rotate(113.22301390098953)" d="M 58.695178092152055 -5.989663490593892 L 95.96898050729241 -9.793341079425122 A 40 40 0 0 1 100.0297693144747 -10 L 118 -10 L 226 -10 A 10 10 0 0 1 236 -1.7763568394002505e-15 L 236 0 L 236 1.7763568394002505e-15 A 10 10 0 0 1 226 10 L 118 10 L 100.0297693144747 10 A 40 40 0 0 0 95.96898050729241 9.793341079425122 L 83.42887907965451 8.513662064369711 L 83.42887907965451 8.513662064369711" fill="none" stroke="#000000" stroke-width="5"/><polygon transform="translate(391.55633087569674 361.44097084454376) scale(1) translate(-228.3724136292501 121.59625400207301) rotate(113.22301390098953) rotate(185.8266894420084) translate(-59 0)" points="-24.8621506177483,0 -27.62461179749811,9.20820393249937 0,0 -27.62461179749811,-9.20820393249937" fill="#000000" stroke="none" stroke-width="5"/><rect transform="translate(391.55633087569674 361.44097084454376) scale(1) translate(-317.48671440370515 329.2850630349142) rotate(23.22301390098953) translate(0 -13) translate(0 0) translate(-62.36328125 0)" x="0" y="0" width="124.7265625" height="26" rx="5" ry="5" fill="#ffffff" stroke="none"/><text xml:space="preserve" transform="translate(391.55633087569674 361.44097084454376) scale(1) translate(-317.48671440370515 329.2850630349142) rotate(23.22301390098953) translate(0 -13) translate(0 0) translate(-62.36328125 0)" x="5" y="18" font-family="sans-serif" font-size="16" font-weight="normal" text-anchor="left" fill="#000000">is_subsidiary_of</text><path transform="translate(391.55633087569674 361.44097084454376) scale(1) translate(151.4140669851198 -185.28191561431103) rotate(90)" d="M 59 0 L 138.84073053136206 0" fill="none" stroke="#000000" stroke-width="5"/><polygon transform="translate(391.55633087569674 361.44097084454376) scale(1) translate(151.4140669851198 -185.28191561431103) rotate(90) translate(163.70288114911037 0) rotate(0)" points="-24.8621506177483,0 -27.62461179749811,9.20820393249937 0,0 -27.62461179749811,-9.20820393249937" fill="undefined" stroke="none" stroke-width="5"/><rect transform="translate(391.55633087569674 361.44097084454376) scale(1) translate(151.4140669851198 -86.36155034863) rotate(270) translate(0 -13) translate(0 0) translate(-34.35546875 0)" x="0" y="0" width="68.7109375" height="26" rx="5" ry="5" fill="#ffffff" stroke="none"/><text xml:space="preserve" transform="translate(391.55633087569674 361.44097084454376) scale(1) translate(151.4140669851198 -86.36155034863) rotate(270) translate(0 -13) translate(0 0) translate(-34.35546875 0)" x="5" y="18" font-family="sans-serif" font-size="16" font-weight="normal" text-anchor="left" fill="#000000">onto_ref</text><path transform="translate(391.55633087569674 361.44097084454376) scale(1) translate(151.4140669851198 -185.28191561431103) rotate(12.378123575537387)" d="M 59 0 L 160.45595984271722 0" fill="none" stroke="#000000" stroke-width="5"/><polygon transform="translate(391.55633087569674 361.44097084454376) scale(1) translate(151.4140669851198 -185.28191561431103) rotate(12.378123575537387) translate(185.3181104604655 0) rotate(0)" points="-24.8621506177483,0 -27.62461179749811,9.20820393249937 0,0 -27.62461179749811,-9.20820393249937" fill="undefined" stroke="none" stroke-width="5"/><rect transform="translate(391.55633087569674 361.44097084454376) scale(1) translate(258.59133184089035 -161.7603621864847) rotate(12.378123575537387) translate(0 -13) translate(0 0) translate(-34.35546875 0)" x="0" y="0" width="68.7109375" height="26" rx="5" ry="5" fill="#ffffff" stroke="none"/><text xml:space="preserve" transform="translate(391.55633087569674 361.44097084454376) scale(1) translate(258.59133184089035 -161.7603621864847) rotate(12.378123575537387) translate(0 -13) translate(0 0) translate(-34.35546875 0)" x="5" y="18" font-family="sans-serif" font-size="16" font-weight="normal" text-anchor="left" fill="#000000">onto_ref</text><path transform="translate(391.55633087569674 361.44097084454376) scale(1) translate(-119.41313383654574 -289.93392503981966) rotate(93.04983115558714)" d="M 59 0 L 96.32698718770163 0" fill="none" stroke="#000000" stroke-width="5"/><polygon transform="translate(391.55633087569674 361.44097084454376) scale(1) translate(-119.41313383654574 -289.93392503981966) rotate(93.04983115558714) translate(121.18913780544992 0) rotate(0)" points="-24.8621506177483,0 -27.62461179749811,9.20820393249937 0,0 -27.62461179749811,-9.20820393249937" fill="undefined" stroke="none" stroke-width="5"/><rect transform="translate(391.55633087569674 361.44097084454376) scale(1) translate(-123.54517824243233 -212.3804309455502) rotate(273.0498311555871) translate(0 -13) translate(0 0) translate(-51.6953125 0)" x="0" y="0" width="103.390625" height="26" rx="5" ry="5" fill="#ffffff" stroke="none"/><text xml:space="preserve" transform="translate(391.55633087569674 361.44097084454376) scale(1) translate(-123.54517824243233 -212.3804309455502) rotate(273.0498311555871) translate(0 -13) translate(0 0) translate(-51.6953125 0)" x="5" y="18" font-family="sans-serif" font-size="16" font-weight="normal" text-anchor="left" fill="#000000">sub_class_of</text><path transform="translate(391.55633087569674 361.44097084454376) scale(1) translate(151.4140669851198 -185.28191561431103) rotate(-29.999999999999996)" d="M 59 0 L 160.45595984271716 0" fill="none" stroke="#000000" stroke-width="5"/><polygon transform="translate(391.55633087569674 361.44097084454376) scale(1) translate(151.4140669851198 -185.28191561431103) rotate(-29.999999999999996) translate(185.31811046046545 0) rotate(0)" points="-24.8621506177483,0 -27.62461179749811,9.20820393249937 0,0 -27.62461179749811,-9.20820393249937" fill="undefined" stroke="none" stroke-width="5"/><rect transform="translate(391.55633087569674 361.44097084454376) scale(1) translate(246.44128510296514 -240.1459055749903) rotate(-29.999999999999996) translate(0 -13) translate(0 0) translate(-34.35546875 0)" x="0" y="0" width="68.7109375" height="26" rx="5" ry="5" fill="#ffffff" stroke="none"/><text xml:space="preserve" transform="translate(391.55633087569674 361.44097084454376) scale(1) translate(246.44128510296514 -240.1459055749903) rotate(-29.999999999999996) translate(0 -13) translate(0 0) translate(-34.35546875 0)" x="5" y="18" font-family="sans-serif" font-size="16" font-weight="normal" text-anchor="left" fill="#000000">onto_ref</text><path transform="translate(391.55633087569674 361.44097084454376) scale(1) translate(-119.41313383654574 -289.93392503981966) rotate(21.12733805381033)" d="M 59 0 L 206.48146612230593 0" fill="none" stroke="#000000" stroke-width="5"/><polygon transform="translate(391.55633087569674 361.44097084454376) scale(1) translate(-119.41313383654574 -289.93392503981966) rotate(21.12733805381033) translate(231.34361674005424 0) rotate(0)" points="-24.8621506177483,0 -27.62461179749811,9.20820393249937 0,0 -27.62461179749811,-9.20820393249937" fill="undefined" stroke="none" stroke-width="5"/><rect transform="translate(391.55633087569674 361.44097084454376) scale(1) translate(4.40498751087128 -242.0886009254552) rotate(21.12733805381033) translate(0 -13) translate(0 0) translate(-57.484375 0)" x="0" y="0" width="114.96875" height="26" rx="5" ry="5" fill="#ffffff" stroke="none"/><text xml:space="preserve" transform="translate(391.55633087569674 361.44097084454376) scale(1) translate(4.40498751087128 -242.0886009254552) rotate(21.12733805381033) translate(0 -13) translate(0 0) translate(-57.484375 0)" x="5" y="18" font-family="sans-serif" font-size="16" font-weight="normal" text-anchor="left" fill="#000000">has_ingredient</text><circle transform="translate(391.55633087569674 361.44097084454376) scale(1)" cx="-129" cy="-110" r="52" fill="#7b64ff" stroke="#000000" stroke-width="4"/><text xml:space="preserve" transform="translate(391.55633087569674 361.44097084454376) scale(1) translate(-129 -110) scale(0.291016333984375) translate(0 0) translate(0 0)" x="0" y="14" font-family="sans-serif" font-size="50" font-weight="normal" text-anchor="middle" fill="#000000">Drug_product</text><rect transform="translate(391.55633087569674 361.44097084454376) scale(1) translate(-129 -110) translate(-56 -28.79999999999999) translate(0 0) translate(-112.9140625 0)" x="0" y="0" width="112.9140625" height="57.599999999999994" rx="0" ry="0" fill="white" stroke="none"/><text xml:space="preserve" transform="translate(391.55633087569674 361.44097084454376) scale(1) translate(-129 -110) translate(-56 -28.79999999999999) translate(0 0) translate(-112.9140625 0)" x="48.9140625" y="14.6" font-family="sans-serif" font-size="16" font-weight="normal" text-anchor="end" fill="#000000">ID:</text><text xml:space="preserve" transform="translate(391.55633087569674 361.44097084454376) scale(1) translate(-129 -110) translate(-56 -28.79999999999999) translate(0 0) translate(-112.9140625 0)" x="53.359375" y="14.6" font-family="sans-serif" font-size="16" font-weight="normal" text-anchor="start" fill="#000000">NDC:ID</text><text xml:space="preserve" transform="translate(391.55633087569674 361.44097084454376) scale(1) translate(-129 -110) translate(-56 -28.79999999999999) translate(0 0) translate(-112.9140625 0)" x="48.9140625" y="33.8" font-family="sans-serif" font-size="16" font-weight="normal" text-anchor="end" fill="#000000">name:</text><text xml:space="preserve" transform="translate(391.55633087569674 361.44097084454376) scale(1) translate(-129 -110) translate(-56 -28.79999999999999) translate(0 0) translate(-112.9140625 0)" x="53.359375" y="33.8" font-family="sans-serif" font-size="16" font-weight="normal" text-anchor="start" fill="#000000"></text><text xml:space="preserve" transform="translate(391.55633087569674 361.44097084454376) scale(1) translate(-129 -110) translate(-56 -28.79999999999999) translate(0 0) translate(-112.9140625 0)" x="48.9140625" y="53" font-family="sans-serif" font-size="16" font-weight="normal" text-anchor="end" fill="#000000">xref:</text><text xml:space="preserve" transform="translate(391.55633087569674 361.44097084454376) scale(1) translate(-129 -110) translate(-56 -28.79999999999999) translate(0 0) translate(-112.9140625 0)" x="53.359375" y="53" font-family="sans-serif" font-size="16" font-weight="normal" text-anchor="start" fill="#000000"></text><circle transform="translate(391.55633087569674 361.44097084454376) scale(1)" cx="151.4140669851198" cy="37.420965534799336" r="52" fill="#a4dd00" stroke="#000000" stroke-width="4"/><text xml:space="preserve" transform="translate(391.55633087569674 361.44097084454376) scale(1) translate(151.4140669851198 37.420965534799336) scale(0.38671936328125) translate(0 0) translate(0 0)" x="0" y="14" font-family="sans-serif" font-size="50" font-weight="normal" text-anchor="middle" fill="#000000">ATC_term</text><circle transform="translate(391.55633087569674 361.44097084454376) scale(1)" cx="390.0528066452284" cy="-132.90929841403022" r="52" fill="#a4dd00" stroke="#000000" stroke-width="4"/><text xml:space="preserve" transform="translate(391.55633087569674 361.44097084454376) scale(1) translate(390.0528066452284 -132.90929841403022) scale(0.32812567187499997) translate(0 0) translate(0 0)" x="0" y="14" font-family="sans-serif" font-size="50" font-weight="normal" text-anchor="middle" fill="#000000">MeSH_term</text><circle transform="translate(391.55633087569674 361.44097084454376) scale(1)" cx="151.4140669851198" cy="-185.28191561431103" r="52" fill="#009ce0" stroke="#000000" stroke-width="4"/><text xml:space="preserve" transform="translate(391.55633087569674 361.44097084454376) scale(1) translate(151.4140669851198 -185.28191561431103) scale(0.35546939453125004) translate(0 0) translate(0 0)" x="0" y="14" font-family="sans-serif" font-size="50" font-weight="normal" text-anchor="middle" fill="#000000">Compound</text><rect transform="translate(391.55633087569674 361.44097084454376) scale(1) translate(151.4140669851198 -185.28191561431103) translate(3.429011037612589e-15 -113.6) translate(0 0) translate(-114.28125 0)" x="0" y="0" width="228.5625" height="57.599999999999994" rx="0" ry="0" fill="white" stroke="none"/><text xml:space="preserve" transform="translate(391.55633087569674 361.44097084454376) scale(1) translate(151.4140669851198 -185.28191561431103) translate(3.429011037612589e-15 -113.6) translate(0 0) translate(-114.28125 0)" x="48.9140625" y="14.6" font-family="sans-serif" font-size="16" font-weight="normal" text-anchor="end" fill="#000000">ID:</text><text xml:space="preserve" transform="translate(391.55633087569674 361.44097084454376) scale(1) translate(151.4140669851198 -185.28191561431103) translate(3.429011037612589e-15 -113.6) translate(0 0) translate(-114.28125 0)" x="53.359375" y="14.6" font-family="sans-serif" font-size="16" font-weight="normal" text-anchor="start" fill="#000000">UNII:ID</text><text xml:space="preserve" transform="translate(391.55633087569674 361.44097084454376) scale(1) translate(151.4140669851198 -185.28191561431103) translate(3.429011037612589e-15 -113.6) translate(0 0) translate(-114.28125 0)" x="48.9140625" y="33.8" font-family="sans-serif" font-size="16" font-weight="normal" text-anchor="end" fill="#000000">xref:</text><text xml:space="preserve" transform="translate(391.55633087569674 361.44097084454376) scale(1) translate(151.4140669851198 -185.28191561431103) translate(3.429011037612589e-15 -113.6) translate(0 0) translate(-114.28125 0)" x="53.359375" y="33.8" font-family="sans-serif" font-size="16" font-weight="normal" text-anchor="start" fill="#000000">Pubchem.Compound:ID</text><text xml:space="preserve" transform="translate(391.55633087569674 361.44097084454376) scale(1) translate(151.4140669851198 -185.28191561431103) translate(3.429011037612589e-15 -113.6) translate(0 0) translate(-114.28125 0)" x="48.9140625" y="53" font-family="sans-serif" font-size="16" font-weight="normal" text-anchor="end" fill="#000000">name:</text><text xml:space="preserve" transform="translate(391.55633087569674 361.44097084454376) scale(1) translate(151.4140669851198 -185.28191561431103) translate(3.429011037612589e-15 -113.6) translate(0 0) translate(-114.28125 0)" x="53.359375" y="53" font-family="sans-serif" font-size="16" font-weight="normal" text-anchor="start" fill="#000000"></text><circle transform="translate(391.55633087569674 361.44097084454376) scale(1)" cx="-228.3724136292501" cy="121.59625400207301" r="52" fill="#fe9200" stroke="#000000" stroke-width="4"/><text xml:space="preserve" transform="translate(391.55633087569674 361.44097084454376) scale(1) translate(-228.3724136292501 121.59625400207301) scale(0.40234434765624993) translate(0 0) translate(0 0)" x="0" y="14" font-family="sans-serif" font-size="50" font-weight="normal" text-anchor="middle" fill="#000000">Company</text><rect transform="translate(391.55633087569674 361.44097084454376) scale(1) translate(-228.3724136292501 121.59625400207301) translate(-39.597979746446654 39.59797974644666) translate(0 0) translate(-123.5859375 0)" x="0" y="0" width="123.5859375" height="38.4" rx="0" ry="0" fill="white" stroke="none"/><text xml:space="preserve" transform="translate(391.55633087569674 361.44097084454376) scale(1) translate(-228.3724136292501 121.59625400207301) translate(-39.597979746446654 39.59797974644666) translate(0 0) translate(-123.5859375 0)" x="48.9140625" y="14.6" font-family="sans-serif" font-size="16" font-weight="normal" text-anchor="end" fill="#000000">ID:</text><text xml:space="preserve" transform="translate(391.55633087569674 361.44097084454376) scale(1) translate(-228.3724136292501 121.59625400207301) translate(-39.597979746446654 39.59797974644666) translate(0 0) translate(-123.5859375 0)" x="53.359375" y="14.6" font-family="sans-serif" font-size="16" font-weight="normal" text-anchor="start" fill="#000000">DUNS:ID</text><text xml:space="preserve" transform="translate(391.55633087569674 361.44097084454376) scale(1) translate(-228.3724136292501 121.59625400207301) translate(-39.597979746446654 39.59797974644666) translate(0 0) translate(-123.5859375 0)" x="48.9140625" y="33.8" font-family="sans-serif" font-size="16" font-weight="normal" text-anchor="end" fill="#000000">name:</text><text xml:space="preserve" transform="translate(391.55633087569674 361.44097084454376) scale(1) translate(-228.3724136292501 121.59625400207301) translate(-39.597979746446654 39.59797974644666) translate(0 0) translate(-123.5859375 0)" x="53.359375" y="33.8" font-family="sans-serif" font-size="16" font-weight="normal" text-anchor="start" fill="#000000"></text><circle transform="translate(391.55633087569674 361.44097084454376) scale(1)" cx="434.74541449452835" cy="248.30740905591736" r="52" fill="#ffffff" stroke="#000000" stroke-width="4"/><text xml:space="preserve" transform="translate(391.55633087569674 361.44097084454376) scale(1) translate(434.74541449452835 248.30740905591736) scale(0.66015658984375) translate(0 0) translate(0 0)" x="0" y="14" font-family="sans-serif" font-size="50" font-weight="normal" text-anchor="middle" fill="#000000">Gene</text><circle transform="translate(391.55633087569674 361.44097084454376) scale(1)" cx="-6.497635983954533" cy="305.81795915466444" r="52" fill="#ffffff" stroke="#000000" stroke-width="4"/><text xml:space="preserve" transform="translate(391.55633087569674 361.44097084454376) scale(1) translate(-6.497635983954533 305.81795915466444) scale(0.5312504687499999) translate(0 0) translate(0 0)" x="0" y="14" font-family="sans-serif" font-size="50" font-weight="normal" text-anchor="middle" fill="#000000">Protein</text><circle transform="translate(391.55633087569674 361.44097084454376) scale(1)" cx="693.5277668568121" cy="-81.03310926679922" r="52" fill="#ffffff" stroke="#000000" stroke-width="4"/><text xml:space="preserve" transform="translate(391.55633087569674 361.44097084454376) scale(1) translate(693.5277668568121 -81.03310926679922) scale(0.47265677734375) translate(0 0) translate(0 0)" x="0" y="14" font-family="sans-serif" font-size="50" font-weight="normal" text-anchor="middle" fill="#000000">Disease</text><circle transform="translate(391.55633087569674 361.44097084454376) scale(1)" cx="-119.41313383654574" cy="-289.93392503981966" r="52" fill="#fda1ff" stroke="#000000" stroke-width="4"/><text xml:space="preserve" transform="translate(391.55633087569674 361.44097084454376) scale(1) translate(-119.41313383654574 -289.93392503981966) scale(0.48828176171874993) translate(0 0) translate(0 0)" x="0" y="14" font-family="sans-serif" font-size="50" font-weight="normal" text-anchor="middle" fill="#000000">Vaccine</text><circle transform="translate(391.55633087569674 361.44097084454376) scale(1)" cx="362.9997572484955" cy="-307.44097084454376" r="52" fill="#a4dd00" stroke="#000000" stroke-width="4"/><text xml:space="preserve" transform="translate(391.55633087569674 361.44097084454376) scale(1) translate(362.9997572484955 -307.44097084454376) scale(0.189453935546875) translate(0 0) translate(0 0)" x="0" y="14" font-family="sans-serif" font-size="50" font-weight="normal" text-anchor="middle" fill="#000000">Pubchem.Compound</text></svg>